<svg width="32" height="32" viewBox="0 0 32 32" fill="none" xmlns="http://www.w3.org/2000/svg">
<path d="M10.1344 21.2501L5 26.303C5.96455 27.2323 7.5284 27.2323 8.49299 26.303L9.89017 24.9568C10.8547 25.8861 12.4186 25.8861 13.3832 24.9568L14.6486 23.7376C12.9394 23.3134 11.354 22.4069 10.1344 21.2501Z" fill="#4D0C9F"/>
<path d="M24.53 7.37975H22.0601V12.615C22.0602 10.8534 23.0536 9.31548 24.53 8.49256C25.2566 8.08758 26.1001 7.8557 26.9999 7.8557C26.9999 7.55571 26.9999 7.37975 26.9999 7.37975V5C25.6357 5 24.53 6.06546 24.53 7.37975Z" fill="#4D0C9F"/>
<path d="M19.5901 7.37975C19.5901 6.06546 18.4843 5 17.1202 5V7.8557C18.02 7.8557 18.8635 8.08758 19.5901 8.49256C21.0666 9.31553 22.0601 10.8535 22.0601 12.6152V7.37975H19.5901Z" fill="#902CCD"/>
<path d="M22.0601 14.0136V12.8485C22.0601 12.7062 22.0601 12.6151 22.0601 12.6151C22.0601 10.8535 21.0666 9.3155 19.5901 8.49258C18.8635 8.0876 18.02 7.85571 17.1202 7.85571V14.519C18.4622 13.226 20.5289 13.058 22.0601 14.0136ZM18.6022 11.1873C18.6022 10.6616 19.0445 10.2354 19.5901 10.2354C20.1358 10.2354 20.5781 10.6616 20.5781 11.1873C20.5781 11.713 20.1358 12.1392 19.5901 12.1392C19.0445 12.1392 18.6022 11.713 18.6022 11.1873Z" fill="#AB3EDE"/>
<path d="M22.0601 12.615V14.0137C22.2898 14.157 22.5077 14.3251 22.709 14.519H26.9999V7.85571C26.1001 7.85571 25.2566 8.0876 24.53 8.49258C23.0536 9.31554 22.0601 10.8534 22.0601 12.615ZM25.5179 11.1874C25.5179 11.7131 25.0756 12.1393 24.53 12.1393C23.9843 12.1393 23.542 11.7131 23.542 11.1874C23.542 10.6617 23.9843 10.2355 24.53 10.2355C25.0756 10.2355 25.5179 10.6617 25.5179 11.1874Z" fill="#6418B0"/>
<path d="M17.1202 14.519L16.6653 14.9573L17.1202 14.519Z" fill="#8F5543"/>
<path d="M22.7091 14.5191C24.2524 16.006 24.2524 18.4169 22.7091 19.9039C19.6225 22.8777 14.6182 22.8777 11.5317 19.904L10.1345 21.2502C11.3542 22.407 12.9394 23.3136 14.6487 23.7377C15.4387 23.9338 16.2669 24.0381 17.1204 24.0381C22.5767 24.0381 27 19.7764 27 14.5191C26.9999 14.5191 22.709 14.519 22.7091 14.5191Z" fill="#AB3EDE"/>
<path d="M17.1202 14.519L22.709 19.9038C24.2523 18.4169 24.2523 16.006 22.709 14.519C22.5077 14.3251 22.2898 14.157 22.0601 14.0137C20.5289 13.058 18.4622 13.2261 17.1202 14.519Z" fill="#902CCD"/>
<path d="M22.7089 19.9039L17.1201 14.5191L16.6653 14.9574L11.5314 19.9039C14.6181 22.8778 19.6224 22.8777 22.7089 19.9039Z" fill="#4D0C9F"/>
<path d="M19.5903 12.1393C20.1359 12.1393 20.5782 11.7131 20.5782 11.1874C20.5782 10.6617 20.1359 10.2355 19.5903 10.2355C19.0446 10.2355 18.6023 10.6617 18.6023 11.1874C18.6023 11.7131 19.0446 12.1393 19.5903 12.1393Z" fill="white"/>
<path d="M24.53 12.1393C25.0756 12.1393 25.5179 11.7131 25.5179 11.1874C25.5179 10.6617 25.0756 10.2355 24.53 10.2355C23.9843 10.2355 23.542 10.6617 23.542 11.1874C23.542 11.7131 23.9843 12.1393 24.53 12.1393Z" fill="#FDF3D3"/>
</svg>
