<svg width="179" height="37" viewBox="0 0 179 37" fill="none" xmlns="http://www.w3.org/2000/svg">
<path d="M8.40177 27.591L0 35.8594C1.57836 37.3801 4.13739 37.3801 5.71583 35.8594L8.00213 33.6566C9.58049 35.1773 12.1395 35.1773 13.718 33.6566L15.7887 31.6615C12.9918 30.9674 10.3976 29.484 8.40177 27.591Z" fill="#4D0C9F"/>
<path d="M31.9582 4.89413H27.9165V13.4608C27.9167 10.5782 29.5422 8.06169 31.9582 6.7151C33.1472 6.0524 34.5275 5.67295 35.9999 5.67295C35.9999 5.18206 35.9999 4.89413 35.9999 4.89413V1C33.7676 1 31.9582 2.74348 31.9582 4.89413Z" fill="#4D0C9F"/>
<path d="M23.8749 4.89413C23.8749 2.74348 22.0654 1 19.8333 1V5.67295C21.3056 5.67295 22.686 6.0524 23.8749 6.7151C26.291 8.06177 27.9166 10.5785 27.9166 13.4612V4.89413H23.8749Z" fill="#902CCD"/>
<path d="M27.9166 15.7496V13.843C27.9166 13.6102 27.9166 13.4611 27.9166 13.4611C27.9166 10.5785 26.291 8.06174 23.8749 6.71515C22.686 6.05245 21.3056 5.673 19.8333 5.673V16.5766C22.0293 14.4608 25.4111 14.1858 27.9166 15.7496ZM22.2583 11.1247C22.2583 10.2645 22.982 9.56705 23.8749 9.56705C24.7678 9.56705 25.4916 10.2645 25.4916 11.1247C25.4916 11.985 24.7678 12.6824 23.8749 12.6824C22.982 12.6824 22.2583 11.985 22.2583 11.1247Z" fill="#AB3EDE"/>
<path d="M27.9165 13.4609V15.7497C28.2924 15.9842 28.6489 16.2592 28.9783 16.5765H35.9999V5.67297C34.5275 5.67297 33.1472 6.05242 31.9582 6.71512C29.5422 8.06179 27.9166 10.5783 27.9165 13.4609ZM33.5749 11.1248C33.5749 11.985 32.8511 12.6824 31.9582 12.6824C31.0653 12.6824 30.3415 11.985 30.3415 11.1248C30.3415 10.2645 31.0653 9.5671 31.9582 9.5671C32.8511 9.5671 33.5749 10.2645 33.5749 11.1248Z" fill="#6418B0"/>
<path d="M19.8331 16.5764L19.0887 17.2937L19.8331 16.5764Z" fill="#8F5543"/>
<path d="M28.9786 16.5766C31.504 19.0098 31.504 22.9548 28.9786 25.388C23.9279 30.2544 15.739 30.2544 10.6882 25.3882L8.40198 27.5911C10.3978 29.4841 12.9919 30.9676 15.7888 31.6616C17.0815 31.9824 18.4368 32.1532 19.8334 32.1532C28.762 32.1532 36.0001 25.1794 36.0001 16.5766C36.0001 16.5766 28.9785 16.5765 28.9786 16.5766Z" fill="#AB3EDE"/>
<path d="M19.8333 16.5765L28.9785 25.388C31.5039 22.9548 31.5039 19.0097 28.9785 16.5765C28.6491 16.2591 28.2925 15.9841 27.9166 15.7496C25.4111 14.1858 22.0293 14.4608 19.8333 16.5765Z" fill="#902CCD"/>
<path d="M28.9785 25.388L19.8331 16.5766L19.0888 17.2938L10.6879 25.388C15.7389 30.2544 23.9278 30.2544 28.9785 25.388Z" fill="#4D0C9F"/>
<path d="M23.875 12.6824C24.7678 12.6824 25.4916 11.985 25.4916 11.1247C25.4916 10.2645 24.7678 9.56708 23.875 9.56708C22.9821 9.56708 22.2583 10.2645 22.2583 11.1247C22.2583 11.985 22.9821 12.6824 23.875 12.6824Z" fill="white"/>
<path d="M31.9583 12.6824C32.8512 12.6824 33.575 11.985 33.575 11.1247C33.575 10.2645 32.8512 9.56708 31.9583 9.56708C31.0655 9.56708 30.3417 10.2645 30.3417 11.1247C30.3417 11.985 31.0655 12.6824 31.9583 12.6824Z" fill="#FDF3D3"/>
<path d="M55.216 26.22C55.216 28.212 54.856 29.856 54.136 31.152C53.44 32.448 52.504 33.456 51.328 34.176C50.176 34.92 48.796 35.556 47.188 36.084L45.604 31.908C46.66 31.5 47.452 31.032 47.98 30.504C48.508 29.976 48.856 29.364 49.024 28.668C49.216 27.972 49.312 27.084 49.312 26.004V5.05199H55.216V26.22Z" fill="black"/>
<path d="M75.7858 30H70.8538L70.6018 27.588C69.2098 29.604 67.2778 30.612 64.8058 30.612C63.0538 30.612 61.7218 30.084 60.8098 29.028C59.9218 27.972 59.4778 26.496 59.4778 24.6V10.884H65.1658V23.88C65.1658 24.816 65.3098 25.476 65.5978 25.86C65.9098 26.22 66.3778 26.4 67.0018 26.4C68.2018 26.4 69.2338 25.656 70.0978 24.168V10.884H75.7858V30Z" fill="black"/>
<path d="M85.3353 30.612C83.6793 30.612 82.3833 30.144 81.4473 29.208C80.5353 28.248 80.0793 26.892 80.0793 25.14V3.28799L85.7673 2.67599V24.924C85.7673 25.716 86.0913 26.112 86.7393 26.112C87.0753 26.112 87.3873 26.052 87.6753 25.932L88.7913 29.964C87.7593 30.396 86.6073 30.612 85.3353 30.612Z" fill="black"/>
<path d="M96.6348 10.884V30H90.9468V10.884H96.6348ZM93.7548 0.803986C94.7388 0.803986 95.5428 1.11599 96.1668 1.73999C96.8148 2.33999 97.1388 3.10799 97.1388 4.04399C97.1388 4.97999 96.8148 5.75999 96.1668 6.38399C95.5428 6.98399 94.7388 7.28399 93.7548 7.28399C92.7708 7.28399 91.9668 6.98399 91.3428 6.38399C90.7188 5.75999 90.4068 4.97999 90.4068 4.04399C90.4068 3.10799 90.7188 2.33999 91.3428 1.73999C91.9668 1.11599 92.7708 0.803986 93.7548 0.803986Z" fill="black"/>
<path d="M109.387 10.272C112.315 10.272 114.607 11.172 116.263 12.972C117.919 14.748 118.747 17.244 118.747 20.46C118.747 22.5 118.363 24.288 117.595 25.824C116.851 27.336 115.771 28.512 114.355 29.352C112.963 30.192 111.307 30.612 109.387 30.612C106.483 30.612 104.191 29.724 102.511 27.948C100.855 26.148 100.027 23.64 100.027 20.424C100.027 18.384 100.399 16.608 101.143 15.096C101.911 13.56 102.991 12.372 104.383 11.532C105.799 10.692 107.467 10.272 109.387 10.272ZM109.387 14.448C108.235 14.448 107.371 14.94 106.795 15.924C106.219 16.884 105.931 18.384 105.931 20.424C105.931 22.512 106.207 24.036 106.759 24.996C107.335 25.956 108.211 26.436 109.387 26.436C110.539 26.436 111.403 25.956 111.979 24.996C112.555 24.012 112.843 22.5 112.843 20.46C112.843 18.372 112.555 16.848 111.979 15.888C111.427 14.928 110.563 14.448 109.387 14.448Z" fill="black"/>
<path d="M132.077 19.776L138.233 30H131.789L128.477 22.836L125.237 30H119.045L125.201 19.956L119.657 10.884H126.029L128.693 17.004L131.249 10.884H137.297L132.077 19.776Z" fill="black"/>
<path d="M156.774 3.28799V30H151.734L151.446 27.768C150.102 29.664 148.29 30.612 146.01 30.612C143.634 30.612 141.822 29.7 140.574 27.876C139.35 26.052 138.738 23.556 138.738 20.388C138.738 18.444 139.062 16.704 139.71 15.168C140.358 13.632 141.27 12.432 142.446 11.568C143.646 10.704 145.014 10.272 146.55 10.272C148.374 10.272 149.886 10.872 151.086 12.072V2.67599L156.774 3.28799ZM147.774 26.436C149.094 26.436 150.198 25.716 151.086 24.276V16.032C150.63 15.48 150.162 15.072 149.682 14.808C149.226 14.544 148.698 14.412 148.098 14.412C147.042 14.412 146.202 14.904 145.578 15.888C144.954 16.872 144.642 18.384 144.642 20.424C144.642 22.656 144.906 24.216 145.434 25.104C145.986 25.992 146.766 26.436 147.774 26.436Z" fill="black"/>
<path d="M169.504 10.272C172.432 10.272 174.724 11.172 176.38 12.972C178.036 14.748 178.864 17.244 178.864 20.46C178.864 22.5 178.48 24.288 177.712 25.824C176.968 27.336 175.888 28.512 174.472 29.352C173.08 30.192 171.424 30.612 169.504 30.612C166.6 30.612 164.308 29.724 162.628 27.948C160.972 26.148 160.144 23.64 160.144 20.424C160.144 18.384 160.516 16.608 161.26 15.096C162.028 13.56 163.108 12.372 164.5 11.532C165.916 10.692 167.584 10.272 169.504 10.272ZM169.504 14.448C168.352 14.448 167.488 14.94 166.912 15.924C166.336 16.884 166.048 18.384 166.048 20.424C166.048 22.512 166.324 24.036 166.876 24.996C167.452 25.956 168.328 26.436 169.504 26.436C170.656 26.436 171.52 25.956 172.096 24.996C172.672 24.012 172.96 22.5 172.96 20.46C172.96 18.372 172.672 16.848 172.096 15.888C171.544 14.928 170.68 14.448 169.504 14.448Z" fill="black"/>
</svg>
